# xmcd CD database file
#
# Track frame offsets:
#	150
#	18485
#	39190
#	57530
#
# Disc length: 1040 seconds
#
# Revision: 0
# Processed by: cddbd v1.5.1PL0 Copyright (c) Steve Scherf et al.
# Submitted via: CDex 1.51
#
DISCID=2b040e04
DTITLE=前田愛(AiM) - デジモンアドベンチャー：I wish
DYEAR=1999
DGENRE=Vocal
TTITLE0=I wish
TTITLE1=いつでも逢えるから
TTITLE2=I wish(OriginalKaraoke)
TTITLE3=いつでも逢えるから(OriginalKaraoke)
EXTD=YEAR: 1999
EXTT0=
EXTT1=
EXTT2=
EXTT3=
PLAYORDER=
